<svg xmlns="http://www.w3.org/2000/svg" viewBox="0 0 20 20">
  <path fill-rule="evenodd" d="M10,2 C15.5228475,2 20,5.58129602 20,9.99904853 C20,14.4168011 15.5228475,17.9980971 10,17.9980971 C8.35696085,17.9980971 6.80647135,17.6811331 5.43888254,17.1194773 L5.46733483,17.125759 C5.34173361,17.0835284 5.20339514,17.0835284 5.0523194,17.125759 C4.82570581,17.1891049 4.18543927,17.817378 3.34434983,18.3706949 C2.78362355,18.7395729 2.13667653,18.9493412 1.40350877,19 C1.87834789,18.3238512 2.21997812,17.5976234 2.42839945,16.8213167 C2.63351251,16.0573323 2.57936368,15.472721 2.26595297,15.0674828 C0.849575629,13.6891784 0,11.9234756 0,9.99904853 C0,5.58129602 4.4771525,2 10,2 Z M10,8.7547521 C9.22486351,8.7547521 8.59649123,9.39142694 8.59649123,10.1768052 C8.59649123,10.9621834 9.22486351,11.5988582 10,11.5988582 C10.7751365,11.5988582 11.4035088,10.9621834 11.4035088,10.1768052 C11.4035088,9.39142694 10.7751365,8.7547521 10,8.7547521 Z M5.61403509,8.7547521 C4.8388986,8.7547521 4.21052632,9.39142694 4.21052632,10.1768052 C4.21052632,10.9621834 4.8388986,11.5988582 5.61403509,11.5988582 C6.38917158,11.5988582 7.01754386,10.9621834 7.01754386,10.1768052 C7.01754386,9.39142694 6.38917158,8.7547521 5.61403509,8.7547521 Z M14.3859649,8.7547521 C13.6108284,8.7547521 12.9824561,9.39142694 12.9824561,10.1768052 C12.9824561,10.9621834 13.6108284,11.5988582 14.3859649,11.5988582 C15.1611014,11.5988582 15.7894737,10.9621834 15.7894737,10.1768052 C15.7894737,9.39142694 15.1611014,8.7547521 14.3859649,8.7547521 Z"/>
</svg>
