<svg xmlns="http://www.w3.org/2000/svg" viewBox="0 0 20 20">
  <path fill-rule="evenodd" d="M3.17893219,3.03248558 L5.428,5.28248558 L6.84103593,6.69516731 L8.07800112,7.93316839 L8.07800112,7.93316839 L10.226,10.0794856 L13.778,13.6314856 L15.1603668,15.0128367 L15.159,15.0124856 L17.3210678,17.1746212 L16.2604076,18.2352814 L13.6879616,15.6633836 C12.5335808,16.0747667 11.2902684,16.2987652 9.99463827,16.2987652 C5.56198908,16.2987652 1.74170857,13.6769033 2.25708341e-13,9.89938261 C0.801997552,8.15996284 2.04471247,6.66557614 3.58499625,5.55937103 L2.11827202,4.09314575 L3.17893219,3.03248558 Z M5.5,9.9 C5.5,12.3852814 7.51471863,14.4 10,14.4 C10.7070087,14.4 11.3759357,14.236953 11.9712311,13.946409 L10.6080706,12.5825442 C10.4124616,12.6266956 10.2089523,12.65 10,12.65 C8.48121694,12.65 7.25,11.4187831 7.25,9.9 C7.25,9.69118495 7.27327377,9.48780578 7.3173688,9.29231499 L5.953591,7.92876891 C5.66304697,8.52406433 5.5,9.19299133 5.5,9.9 Z M9.99463827,3.5 C14.4272875,3.5 18.247568,6.12186196 19.9892765,9.89938261 C19.1975594,11.6165056 17.9763512,13.0948372 16.4633658,14.1966634 L14.0764902,11.8083619 C14.348183,11.2289941 14.5,10.5822264 14.5,9.9 C14.5,7.41471863 12.4852814,5.4 10,5.4 C9.31777359,5.4 8.67100593,5.55181697 8.09163814,5.82350981 L6.37536051,4.10929389 C7.50879915,3.71453763 8.72666474,3.5 9.99463827,3.5 Z M10,7.15 C11.5187831,7.15 12.75,8.38121694 12.75,9.9 C12.75,10.0814898 12.7324188,10.2588733 12.6988667,10.4305403 L9.4694597,7.20113328 C9.6411267,7.16758116 9.8185102,7.15 10,7.15 Z"/>
</svg>
