<svg xmlns="http://www.w3.org/2000/svg" viewBox="0 0 20 20">
  <path fill-rule="evenodd" d="M7.15116938,1.25201523 L13.3967055,7.49629145 C13.6466621,7.74619765 13.7870924,8.08517227 13.7870966,8.43862865 L13.7871976,16.9968627 C13.7871976,18.1031648 12.8902446,19 11.7837971,19 C10.6773496,19 9.78039662,18.1031648 9.78039662,16.9968627 L9.78029705,10.0980354 C9.78029195,9.7445744 9.63985718,9.40559615 9.3898942,9.15568985 L4.31793327,4.08487922 C3.53555672,3.30260543 3.53555672,2.03428902 4.31793327,1.25201523 C5.10030982,0.46974144 6.36879283,0.46974144 7.15116938,1.25201523 Z M3.42053493,5.9203521 L7.40022592,9.89931927 C7.65017472,10.1492226 7.79060117,10.4881897 7.7906076,10.8416386 L7.7907051,16.1961923 C7.7907051,17.3027178 6.89361673,18.199734 5.78700213,18.199734 C4.68038755,18.199734 3.78329917,17.3027178 3.78329917,16.1961923 L3.7832056,12.5013881 C3.78319665,12.14793 3.64276047,11.8089559 3.39279833,11.5590527 L0.586871013,8.75378793 C-0.195623672,7.97135623 -0.195623672,6.7027838 0.586871013,5.9203521 C1.3693657,5.13792038 2.63804025,5.13792038 3.42053493,5.9203521 Z M18.2466237,0.469149535 C19.9233177,1.43493565 20.4977955,3.57392472 19.5297557,5.24671532 C18.561716,6.91950593 16.4177357,7.49264633 14.7410416,6.52686022 C13.0643476,5.5610741 12.4898698,3.42208505 13.4579095,1.74929443 C14.4259493,0.076503815 16.5699297,-0.496636577 18.2466237,0.469149535 Z" transform="translate(0 .5)"/>
</svg>
