<svg xmlns="http://www.w3.org/2000/svg" viewBox="0 0 20 20">
  <path fill-rule="evenodd" d="M9.99463827,3.6 C14.4272875,3.6 18.247568,6.22186196 19.9892765,9.99938261 C18.247568,13.7769033 14.4272875,16.3987652 9.99463827,16.3987652 C5.56198908,16.3987652 1.74170857,13.7769033 9.60342916e-14,9.99938261 C1.74170857,6.22186196 5.56198908,3.6 9.99463827,3.6 Z M10,5.5 C7.51471863,5.5 5.5,7.51471863 5.5,10 C5.5,12.4852814 7.51471863,14.5 10,14.5 C12.4852814,14.5 14.5,12.4852814 14.5,10 C14.5,7.51471863 12.4852814,5.5 10,5.5 Z M10,7.25 C11.5187831,7.25 12.75,8.48121694 12.75,10 C12.75,11.5187831 11.5187831,12.75 10,12.75 C8.48121694,12.75 7.25,11.5187831 7.25,10 C7.25,8.48121694 8.48121694,7.25 10,7.25 Z"/>
</svg>
