<svg xmlns="http://www.w3.org/2000/svg" viewBox="0 0 20 20">
  <path d="M0.00113429111,14.2146251 C1.81182111,15.345535 3.95969087,16 6.26212273,16 C12.7305073,16 17.973977,10.8357113 17.973977,4.46631808 C17.973977,4.30728755 17.9705741,4.14943285 17.9643653,3.99204847 C18.1983278,3.81073603 19.6453251,2.66859698 20,1.93435214 C20,1.93435214 18.8249341,2.41526517 17.6748823,2.52855605 C17.6726137,2.52855605 17.6698079,2.52908517 17.6675393,2.52908517 C17.6675393,2.52908517 17.6698079,2.52796813 17.673748,2.52520494 C17.7797147,2.45547843 19.2612183,1.4623166 19.4618087,0.278964832 C19.4618087,0.278964832 18.6306718,0.71584316 17.4669489,1.09804555 C17.2742985,1.16106985 17.0726335,1.22303591 16.8646999,1.28047503 C16.1145753,0.492083381 15.0483417,0 13.8647985,0 C11.5946043,0 9.755023,1.81106673 9.755023,4.04501945 C9.755023,4.36025853 9.7918576,4.66709045 9.86152693,4.96169378 C9.5442836,4.94887727 4.71321837,4.68214103 1.42663972,0.762641053 C1.42663972,0.762641053 -0.537594288,3.40337095 2.59716845,6.11882461 C2.59716845,6.11882461 1.64424452,6.08143333 0.82212226,5.59769832 C0.82212226,5.59769832 0.520162025,8.796887 4.07019471,9.61485067 C4.07019471,9.61485067 3.37165048,9.87541387 2.25723931,9.68963327 C2.25723931,9.68963327 2.88044273,12.2745702 6.03448842,12.5161437 C6.03448842,12.5161437 3.54042106,14.7349283 0,14.2143311 L0.00113429111,14.2146251 Z" transform="translate(0 2)"/>
</svg>
